<svg xmlns="http://www.w3.org/2000/svg" viewBox="0.25 0.25 21.8 20.63"><defs><clipPath id="a" clipPathUnits="userSpaceOnUse"><path d="M39.992 40.364h252.88V99.2H39.992Z"/></clipPath></defs><g clip-path="url(#a)" transform="matrix(.35278 0 0 -.35278 -13.86 35.158)"><path d="M0 0a32.467 32.467 0 0 1-8.975 1.258c-16.976 0-30.739-12.974-30.739-28.98 0-16.005 13.763-28.979 30.739-28.979 15.6 0 28.476 10.958 30.463 25.152z" style="fill:#fff;fill-opacity:1;fill-rule:nonzero;stroke:none" transform="translate(79.785 97.447)"/><path d="M0 0c-3.956 1.867-7.614 2.793-12.322 2.876-16.971.295-30.958-12.536-31.24-28.659a27.875 27.875 0 0 1 1.043-8.07l8.773 12.299 5.94-9.297s1.785-2.024.431-4.071c-.084-.128-8.059-11.144-8.059-11.144 5.508-5.771 13.257-9.294 22.094-9.448 8.573-.151 16.226 2.976 21.893 8.257l-18.66 29.454s2.943 4.13 5.244 7.403c2.534 3.602 4.815 1.087 5.576-.104C6.184-19.082 16.45-35.351 16.45-35.351l.005.094c1.052 2.419 1.591 3.152 1.704 6.636L0 0m-4.427-35.269s-4.967-7.244-5.476-7.935c-3.039-4.129-5.274.638-5.274.638L-30.983-17.72s2.942 4.129 5.245 7.402c2.533 3.603 4.814 1.087 5.575-.104 5.471-8.577 15.736-24.847 15.736-24.847" style="fill:#ee2223;fill-opacity:1;fill-rule:nonzero;stroke:none" transform="translate(83.602 96.029)"/><path d="M0 0c0 1.361 1.103 2.361 2.405 2.361 1.291 0 2.392-1 2.392-2.361 0-1.37-1.101-2.372-2.392-2.372C1.103-2.372 0-1.37 0 0m2.405-1.977c1.071 0 1.916.84 1.916 1.977 0 1.121-.845 1.967-1.916 1.967C1.322 1.967.476 1.121.476 0c0-1.137.846-1.977 1.929-1.977m-.5.607h-.414v2.731H2.53c.645 0 .966-.24.966-.778 0-.489-.308-.702-.708-.752l.776-1.201H3.1L2.38-.186h-.475V-1.37M2.4.163c.35 0 .662.026.662.446 0 .336-.306.401-.595.401h-.562V.163Z" style="fill:#231f20;fill-opacity:1;fill-rule:nonzero;stroke:none" transform="translate(88.455 94.474)"/></g></svg>